# xmcd CD database file
#
# Track frame offsets:
#	150
#	8190
#	24657
#	47342
#	70030
#	81565
#	100385
#	133185
#	143145
#	156460
#	171862
#	194400
#	224480
#	247817
#	272672
#
# Disc length: 3862 seconds
#
# Revision: 0
# Processed by: cddbd v1.5PL3 Copyright (c) Steve Scherf et al.
# Submitted via: CDex 1.51
#
DISCID=d90f140f
DTITLE=Trailer Park Troubadours - Bootlegged!
DYEAR=1998
DGENRE=Country
TTITLE0=Introduction
TTITLE1=Having a Good Time Tonight
TTITLE2=One Less Trailer
TTITLE3=Aunt Beula's Roadkill Overcoat
TTITLE4=Mud Wrasslin' at Pinky's
TTITLE5=It Ain't Home (Till You Take the Wheels Off)
TTITLE6=The Spittin' Match
TTITLE7=Flem's Poem
TTITLE8=The Clapper Song
TTITLE9=Redneck Aphrodisiac
TTITLE10=Trailer Park Princess
TTITLE11=DysFUNKtional
TTITLE12=Skinny Women Ain't Hip
TTITLE13=My Baby Took the Mobile Out of Mobile Home
TTITLE14=Trailer Hoppin'
EXTD=YEAR: 1998
EXTT0=
EXTT1=
EXTT2=
EXTT3=
EXTT4=
EXTT5=
EXTT6=
EXTT7=
EXTT8=
EXTT9=
EXTT10=
EXTT11=
EXTT12=
EXTT13=
EXTT14=
PLAYORDER=
